<svg id="Layer_1" data-name="Layer 1" xmlns="http://www.w3.org/2000/svg" viewBox="0 0 1122 1029"><title>Logo</title><path d="M80.26,1029H-.25V189.59H135.13a37.31,37.31,0,0,1,28.15,12,40.32,40.32,0,0,1,11.38,28.76V799.73q0,16.78-11.35,28.17t-28.08,11.38h-55Zm0-270.08H94.15V269.56H80.26Z"/><path d="M364.16,839.28H283.64V269.56H269.76V839.28H189.24V-.13h80.52V189.33h55a37.14,37.14,0,0,1,28.08,12,40.43,40.43,0,0,1,11.35,28.78Z"/><path d="M459.26,839.28H378.74V189.59H514.12a37.28,37.28,0,0,1,28.15,12,40.4,40.4,0,0,1,11.39,28.79V460.76H473.14V270.05H459.26Z"/><path d="M703.62,839.28H607.77q-16.78,0-28.15-11.38t-11.39-28.17V230.34a40.25,40.25,0,0,1,11.39-28.76,37.26,37.26,0,0,1,28.15-12h95.85a37.31,37.31,0,0,1,28.15,12,40.26,40.26,0,0,1,11.38,28.72v324.4h-94.4V758.54h13.88V569h80.52v230.6q0,16.83-11.38,28.23T703.62,839.28ZM648.75,474.65h13.88V269.56H648.75Z"/><path d="M932.65,839.28H797.27q-16.8,0-28.16-11.38t-11.38-28.16V514.66q0-16.75,11.35-28.15t28.09-11.38h55V270.05H838.25V460.76H757.73V230.38a40.35,40.35,0,0,1,11.38-28.79,37.26,37.26,0,0,1,28.16-12h95.84a37.35,37.35,0,0,1,28.16,12,40.37,40.37,0,0,1,11.38,28.76Zm-94.4-80.36h13.88V555H838.25Z"/><path d="M1122.14,839.28h-80.51V601.79h-13.89V839.28H947.23V-.13h80.51v426.9h13.89V189.33h80.51V467.54q0,16.79-11.35,28.18t-28.08,11.4h-55V521.5h55a37.19,37.19,0,0,1,28.08,12,40.39,40.39,0,0,1,11.35,28.78Z"/></svg>